<mxfile host="app.diagrams.net" agent="Mozilla/5.0 (Macintosh; Intel Mac OS X 10_15_7) AppleWebKit/605.1.15 (KHTML, like Gecko) Version/16.6 Safari/605.1.15" version="27.0.9">
  <diagram name="Página-1" id="Vc1bDZVpIhPylwoKU5ut">
    <mxGraphModel dx="830" dy="551" grid="1" gridSize="10" guides="1" tooltips="1" connect="1" arrows="1" fold="1" page="1" pageScale="1" pageWidth="827" pageHeight="1169" math="0" shadow="0">
      <root>
        <mxCell id="0" />
        <mxCell id="1" parent="0" />
        <mxCell id="KGPcSMPJMxEzhZjs5CbJ-1" value="Aluno" style="shape=umlActor;verticalLabelPosition=bottom;verticalAlign=top;html=1;outlineConnect=0;" vertex="1" parent="1">
          <mxGeometry x="70" y="50" width="30" height="60" as="geometry" />
        </mxCell>
        <mxCell id="KGPcSMPJMxEzhZjs5CbJ-3" value="Professor" style="shape=umlActor;verticalLabelPosition=bottom;verticalAlign=top;html=1;outlineConnect=0;" vertex="1" parent="1">
          <mxGeometry x="70" y="190" width="30" height="60" as="geometry" />
        </mxCell>
        <mxCell id="KGPcSMPJMxEzhZjs5CbJ-4" value="Login" style="ellipse;whiteSpace=wrap;html=1;" vertex="1" parent="1">
          <mxGeometry x="150" y="50" width="90" height="60" as="geometry" />
        </mxCell>
        <mxCell id="KGPcSMPJMxEzhZjs5CbJ-5" value="Registrar-se" style="ellipse;whiteSpace=wrap;html=1;" vertex="1" parent="1">
          <mxGeometry x="280" y="10" width="70" height="50" as="geometry" />
        </mxCell>
        <mxCell id="KGPcSMPJMxEzhZjs5CbJ-6" value="" style="endArrow=classic;html=1;rounded=0;exitX=1;exitY=0;exitDx=0;exitDy=0;entryX=0;entryY=0.5;entryDx=0;entryDy=0;" edge="1" parent="1" source="KGPcSMPJMxEzhZjs5CbJ-4" target="KGPcSMPJMxEzhZjs5CbJ-5">
          <mxGeometry relative="1" as="geometry">
            <mxPoint x="360" y="260" as="sourcePoint" />
            <mxPoint x="320" y="90" as="targetPoint" />
          </mxGeometry>
        </mxCell>
        <mxCell id="KGPcSMPJMxEzhZjs5CbJ-7" value="Extend" style="edgeLabel;resizable=0;html=1;;align=center;verticalAlign=middle;" connectable="0" vertex="1" parent="KGPcSMPJMxEzhZjs5CbJ-6">
          <mxGeometry relative="1" as="geometry" />
        </mxCell>
        <mxCell id="KGPcSMPJMxEzhZjs5CbJ-8" value="" style="endArrow=classic;html=1;rounded=0;" edge="1" parent="1" source="KGPcSMPJMxEzhZjs5CbJ-1" target="KGPcSMPJMxEzhZjs5CbJ-4">
          <mxGeometry width="50" height="50" relative="1" as="geometry">
            <mxPoint x="430" y="290" as="sourcePoint" />
            <mxPoint x="480" y="240" as="targetPoint" />
          </mxGeometry>
        </mxCell>
        <mxCell id="KGPcSMPJMxEzhZjs5CbJ-9" value="" style="endArrow=classic;html=1;rounded=0;exitX=1;exitY=0.5;exitDx=0;exitDy=0;entryX=0;entryY=0.5;entryDx=0;entryDy=0;" edge="1" parent="1" source="KGPcSMPJMxEzhZjs5CbJ-4" target="KGPcSMPJMxEzhZjs5CbJ-10">
          <mxGeometry width="50" height="50" relative="1" as="geometry">
            <mxPoint x="280" y="140" as="sourcePoint" />
            <mxPoint x="310" y="80" as="targetPoint" />
          </mxGeometry>
        </mxCell>
        <mxCell id="KGPcSMPJMxEzhZjs5CbJ-10" value="Realizar Provas" style="ellipse;whiteSpace=wrap;html=1;" vertex="1" parent="1">
          <mxGeometry x="340" y="40" width="120" height="80" as="geometry" />
        </mxCell>
        <mxCell id="KGPcSMPJMxEzhZjs5CbJ-12" value="Login" style="ellipse;whiteSpace=wrap;html=1;" vertex="1" parent="1">
          <mxGeometry x="150" y="190" width="70" height="50" as="geometry" />
        </mxCell>
        <mxCell id="KGPcSMPJMxEzhZjs5CbJ-13" value="" style="endArrow=classic;html=1;rounded=0;exitX=1;exitY=0;exitDx=0;exitDy=0;entryX=0;entryY=0.5;entryDx=0;entryDy=0;" edge="1" parent="1" source="KGPcSMPJMxEzhZjs5CbJ-12" target="KGPcSMPJMxEzhZjs5CbJ-15">
          <mxGeometry relative="1" as="geometry">
            <mxPoint x="300" y="194" as="sourcePoint" />
            <mxPoint x="250" y="170" as="targetPoint" />
          </mxGeometry>
        </mxCell>
        <mxCell id="KGPcSMPJMxEzhZjs5CbJ-14" value="Extend" style="edgeLabel;resizable=0;html=1;;align=center;verticalAlign=middle;" connectable="0" vertex="1" parent="KGPcSMPJMxEzhZjs5CbJ-13">
          <mxGeometry relative="1" as="geometry" />
        </mxCell>
        <mxCell id="KGPcSMPJMxEzhZjs5CbJ-15" value="Registrar-se" style="ellipse;whiteSpace=wrap;html=1;" vertex="1" parent="1">
          <mxGeometry x="250" y="140" width="70" height="50" as="geometry" />
        </mxCell>
        <mxCell id="KGPcSMPJMxEzhZjs5CbJ-16" value="Gerenciar&lt;div&gt;Níveis&lt;/div&gt;" style="ellipse;whiteSpace=wrap;html=1;" vertex="1" parent="1">
          <mxGeometry x="330" y="160" width="90" height="60" as="geometry" />
        </mxCell>
        <mxCell id="KGPcSMPJMxEzhZjs5CbJ-17" value="" style="endArrow=classic;html=1;rounded=0;exitX=1;exitY=0.5;exitDx=0;exitDy=0;entryX=0;entryY=0.5;entryDx=0;entryDy=0;" edge="1" parent="1" source="KGPcSMPJMxEzhZjs5CbJ-12" target="KGPcSMPJMxEzhZjs5CbJ-16">
          <mxGeometry width="50" height="50" relative="1" as="geometry">
            <mxPoint x="220" y="300" as="sourcePoint" />
            <mxPoint x="270" y="250" as="targetPoint" />
          </mxGeometry>
        </mxCell>
        <mxCell id="KGPcSMPJMxEzhZjs5CbJ-19" value="Cadastrar Nível" style="ellipse;whiteSpace=wrap;html=1;" vertex="1" parent="1">
          <mxGeometry x="440" y="135" width="90" height="60" as="geometry" />
        </mxCell>
        <mxCell id="KGPcSMPJMxEzhZjs5CbJ-20" value="Excluir Nível" style="ellipse;whiteSpace=wrap;html=1;" vertex="1" parent="1">
          <mxGeometry x="470" y="200" width="90" height="60" as="geometry" />
        </mxCell>
        <mxCell id="KGPcSMPJMxEzhZjs5CbJ-21" value="" style="endArrow=classic;html=1;rounded=0;exitX=1;exitY=0.5;exitDx=0;exitDy=0;entryX=0;entryY=0.5;entryDx=0;entryDy=0;" edge="1" parent="1" source="KGPcSMPJMxEzhZjs5CbJ-16" target="KGPcSMPJMxEzhZjs5CbJ-19">
          <mxGeometry width="50" height="50" relative="1" as="geometry">
            <mxPoint x="430" y="290" as="sourcePoint" />
            <mxPoint x="480" y="240" as="targetPoint" />
          </mxGeometry>
        </mxCell>
        <mxCell id="KGPcSMPJMxEzhZjs5CbJ-22" value="Visualizar Tentativas" style="ellipse;whiteSpace=wrap;html=1;" vertex="1" parent="1">
          <mxGeometry x="430" y="260" width="90" height="60" as="geometry" />
        </mxCell>
        <mxCell id="KGPcSMPJMxEzhZjs5CbJ-23" value="" style="endArrow=classic;html=1;rounded=0;exitX=1;exitY=0.5;exitDx=0;exitDy=0;entryX=0;entryY=0.5;entryDx=0;entryDy=0;" edge="1" parent="1" source="KGPcSMPJMxEzhZjs5CbJ-16" target="KGPcSMPJMxEzhZjs5CbJ-20">
          <mxGeometry width="50" height="50" relative="1" as="geometry">
            <mxPoint x="240" y="390" as="sourcePoint" />
            <mxPoint x="290" y="340" as="targetPoint" />
          </mxGeometry>
        </mxCell>
        <mxCell id="KGPcSMPJMxEzhZjs5CbJ-24" value="" style="endArrow=classic;html=1;rounded=0;exitX=1;exitY=0.5;exitDx=0;exitDy=0;entryX=0;entryY=0;entryDx=0;entryDy=0;" edge="1" parent="1" source="KGPcSMPJMxEzhZjs5CbJ-16" target="KGPcSMPJMxEzhZjs5CbJ-22">
          <mxGeometry width="50" height="50" relative="1" as="geometry">
            <mxPoint x="430" y="290" as="sourcePoint" />
            <mxPoint x="480" y="240" as="targetPoint" />
          </mxGeometry>
        </mxCell>
      </root>
    </mxGraphModel>
  </diagram>
</mxfile>
